PathFileType	4	(X/Y/Z)	./resultDataOpenSim/trcMotMarkerGrf/sub10/qtm-02-06.trc
DataRate	CameraRate	NumFrames	NumMarkers	Units	OrigDataRate	OrigDataStartFrame	OrigNumFrames
250.000000	250.000000	8	24	m	250.000000	205	546
Frame#	Time	L.Toe.Tip			R.Toe.Tip			L.Ankle.Lat			R.Ankle.Lat			L.Ankle.Med			R.Ankle.Med			L.Heel			R.Heel			L.Knee.Lat			R.Knee.Lat			L.Knee.Med			R.Knee.Med			L.Thigh.Upper			R.Thigh.Upper			L.ASIS			R.ASIS			V.Sacral			L.Acromium			R.Acromium			C7			L.Elbow			R.Elbow			L.Wrist.Lat			R.Wrist.Lat
		X1	Y1	Z1	X2	Y2	Z2	X3	Y3	Z3	X4	Y4	Z4	X5	Y5	Z5	X6	Y6	Z6	X7	Y7	Z7	X8	Y8	Z8	X9	Y9	Z9	X10	Y10	Z10	X11	Y11	Z11	X12	Y12	Z12	X13	Y13	Z13	X14	Y14	Z14	X15	Y15	Z15	X16	Y16	Z16	X17	Y17	Z17	X18	Y18	Z18	X19	Y19	Z19	X20	Y20	Z20	X21	Y21	Z21	X22	Y22	Z22	X23	Y23	Z23	X24	Y24	Z24

205	0.816	0.01927161	0.021228571	-0.057403158	-0.71885362	0.039155274	0.023953934	-0.11304498	0.041788562	-0.10169101	-0.82012029	0.13294435	0.058561946	-0.11511749	0.065212425	-0.018481965	-0.77838827	0.13909636	-0.020579298	-0.17915657	0.0099911986	-0.064755869	-0.86864184	0.14160348	0.003839828	-0.1435555	0.43187825	-0.1306439	-0.52906329	0.40287265	0.10554462	-0.14224864	0.4109491	-0.0096574073	-0.48612164	0.39215486	-0.01525489	-0.27030379	0.79378807	-0.19385849	-0.4300137	0.78987706	0.16412592	-0.25302849	0.89566471	-0.10445447	-0.3270089	0.87849075	0.12831823	-0.48178953	0.89403462	-0.062804348	-0.38161613	1.3518967	-0.16611938	-0.39551037	1.3453452	0.16193928	-0.47359656	1.3771222	-0.010541493	-0.53231029	1.0471185	-0.21763107	-0.37952117	0.98484265	0.22541967	-0.46759577	0.81978276	-0.28505493	-0.1438375	0.90685956	0.18712296
206	0.82	0.02003846	0.020590924	-0.057145961	-0.71768658	0.039090018	0.023862343	-0.11230575	0.041840002	-0.10143995	-0.81432069	0.13714972	0.05926299	-0.11474014	0.06530406	-0.018275741	-0.77187433	0.14178356	-0.019184694	-0.1788312	0.010289417	-0.064801125	-0.86151151	0.14747239	0.004221155	-0.13719595	0.43249355	-0.12994082	-0.52012318	0.40271723	0.10654109	-0.13600018	0.41217692	-0.0091387635	-0.47700193	0.39127741	-0.013820388	-0.26394679	0.79497818	-0.19510789	-0.4225025	0.78938523	0.16398409	-0.24713061	0.89721657	-0.10499815	-0.32011342	0.87848903	0.12765794	-0.47451045	0.89429321	-0.062532517	-0.37630914	1.3523696	-0.16633438	-0.38904585	1.3460233	0.16167641	-0.46777865	1.3774599	-0.010430696	-0.52577072	1.0471392	-0.21768864	-0.37512636	0.98541888	0.22535183	-0.4618098	0.82004761	-0.28598695	-0.13989807	0.90620953	0.18664695
207	0.824	0.020760069	0.02001034	-0.05694269	-0.71638484	0.039028691	0.023833181	-0.1115708	0.041850867	-0.10115078	-0.80783142	0.14130646	0.060018929	-0.11434838	0.065362732	-0.018013108	-0.76474269	0.14427249	-0.017735555	-0.17853958	0.010542743	-0.064796481	-0.85358409	0.15342865	0.0044805509	-0.13120744	0.43298833	-0.12923908	-0.5108289	0.40252885	0.10761385	-0.13009259	0.41323318	-0.0085501388	-0.46740973	0.39022401	-0.012219581	-0.25774648	0.79608313	-0.19621223	-0.41501295	0.7889125	0.16384011	-0.24123107	0.89878098	-0.10563575	-0.31319922	0.87854234	0.12689465	-0.46776591	0.89513058	-0.06106931	-0.3709864	1.3528919	-0.16653831	-0.38257854	1.3466996	0.16137996	-0.46199052	1.3778259	-0.010337669	-0.51921054	1.0471771	-0.21776218	-0.37079099	0.98603547	0.22530166	-0.45590843	0.82035745	-0.28691491	-0.13605606	0.90552134	0.18620268
208	0.828	0.021368886	0.01950512	-0.056675372	-0.71491873	0.038961801	0.023852129	-0.11093149	0.041848701	-0.10084466	-0.80074675	0.14534926	0.060840455	-0.11401222	0.065344605	-0.01770389	-0.75701605	0.14651496	-0.016224663	-0.1782801	0.010714029	-0.064760226	-0.84516993	0.15935526	0.0047273371	-0.12564578	0.43335137	-0.12855452	-0.5012026	0.40228335	0.10876098	-0.12463131	0.41406464	-0.0078790305	-0.45732566	0.38896423	-0.010465192	-0.25180414	0.79709369	-0.19695342	-0.40755795	0.78845453	0.16368117	-0.23527989	0.900321	-0.10639618	-0.30625385	0.87865237	0.12601727	-0.46257504	0.89665824	-0.058225042	-0.36564263	1.353455	-0.1667275	-0.37615708	1.347359	0.16104864	-0.45621638	1.3781993	-0.010255507	-0.51276986	1.0473129	-0.21774271	-0.366525	0.9866902	0.22527192	-0.44989344	0.82071442	-0.28783948	-0.13232734	0.9047927	0.18578557
209	0.832	0.02183897	0.019073947	-0.056292657	-0.71325486	0.038867087	0.023916984	-0.11043569	0.041866144	-0.10054431	-0.79325491	0.14923226	0.061732937	-0.11381351	0.065244793	-0.017393178	-0.74881059	0.14851891	-0.014624034	-0.17806828	0.010804092	-0.064701783	-0.83650678	0.16515189	0.0051209119	-0.12052848	0.433569	-0.12789431	-0.4912759	0.40194016	0.10999921	-0.11971618	0.41462857	-0.0071470181	-0.4467421	0.38747971	-0.0085993941	-0.24607943	0.79801754	-0.19738579	-0.40014088	0.78799126	0.16350136	-0.22927462	0.90183809	-0.1072544	-0.29929672	0.87882235	0.1250449	-0.45869624	0.89847202	-0.054846051	-0.36028256	1.3540563	-0.16690387	-0.36983186	1.3479946	0.16068385	-0.45045912	1.3785687	-0.010187333	-0.5064541	1.047556	-0.21763765	-0.36234358	0.98738336	0.22527097	-0.44375777	0.8211139	-0.28876012	-0.12870975	0.90402727	0.18539337
210	0.836	0.022191626	0.018712444	-0.055823675	-0.71136649	0.038732027	0.024039757	-0.11007603	0.041923712	-0.1002542	-0.78549666	0.15296154	0.062705195	-0.11376643	0.065072042	-0.017097034	-0.74031835	0.15038296	-0.012922602	-0.17790815	0.010835382	-0.064622607	-0.82763759	0.17080682	0.0057336969	-0.11582461	0.43364035	-0.12725407	-0.4810924	0.40148073	0.1113411	-0.11543757	0.41490679	-0.006408604	-0.43567016	0.38576711	-0.0066821426	-0.2404801	0.79886851	-0.19765246	-0.39276358	0.78749844	0.16330258	-0.22325352	0.90333149	-0.10816595	-0.29235467	0.87904757	0.12400948	-0.4546894	0.89987286	-0.052275077	-0.35491314	1.3546976	-0.16707906	-0.36360715	1.3486105	0.16029434	-0.44471663	1.3789368	-0.010134939	-0.50018656	1.0478701	-0.21752411	-0.35825146	0.9881093	0.22530648	-0.43750146	0.82154523	-0.28967358	-0.12517865	0.90323121	0.18502902
211	0.84	0.02246955	0.018420834	-0.055345232	-0.70923796	0.038598619	0.024234783	-0.10980779	0.042002532	-0.099950392	-0.77751467	0.15658924	0.063759466	-0.11379047	0.064830239	-0.016770156	-0.73174582	0.15227082	-0.011154189	-0.17778154	0.010829626	-0.064516354	-0.81852329	0.17636704	0.0065472218	-0.11146588	0.43357931	-0.12663046	-0.47071298	0.40091871	0.11278536	-0.1118472	0.41491408	-0.0057253182	-0.42414503	0.38383939	-0.0047598624	-0.23493995	0.79966861	-0.19784099	-0.38543425	0.78696828	0.16308359	-0.21728391	0.90478331	-0.10909324	-0.2854479	0.87931535	0.12294303	-0.44952075	0.9005102	-0.051104269	-0.34953743	1.3553804	-0.16727089	-0.3574498	1.349218	0.15990174	-0.43898029	1.3793168	-0.010097878	-0.49390595	1.048222	-0.21746099	-0.35424203	0.98886029	0.22537448	-0.43114584	0.82199815	-0.29056985	-0.12170366	0.90240401	0.18469977
212	0.844	0.022706168	0.018195963	-0.054928218	-0.706858	0.038594076	0.024520073	-0.10957675	0.042049957	-0.099600317	-0.76929778	0.16017642	0.064889358	-0.11378127	0.064528988	-0.016363899	-0.7232206	0.15431897	-0.0093865381	-0.17767002	0.010807459	-0.064368997	-0.8091699	0.18188736	0.0075704873	-0.1073846	0.43340497	-0.12602806	-0.4602072	0.40028416	0.11434269	-0.10890258	0.41468805	-0.0051138345	-0.41223078	0.38172781	-0.0028401424	-0.2294081	0.80045555	-0.19803123	-0.37817103	0.78641735	0.1628443	-0.21142998	0.90617387	-0.11000701	-0.27860137	0.87961133	0.12187668	-0.44345472	0.90065737	-0.050753518	-0.34415394	1.3561015	-0.1674907	-0.35134018	1.3498282	0.15952942	-0.43325298	1.3797202	-0.010079932	-0.48760079	1.0486009	-0.21745956	-0.35029705	0.98962503	0.22545163	-0.42471476	0.82247008	-0.29143871	-0.11826811	0.90153925	0.18441529
